<?xml version="1.0" standalone="no"?><!DOCTYPE svg PUBLIC "-//W3C//DTD SVG 1.1//EN" "http://www.w3.org/Graphics/SVG/1.1/DTD/svg11.dtd"><svg t="1615356252124" class="icon" viewBox="0 0 1024 1024" version="1.1" xmlns="http://www.w3.org/2000/svg" p-id="54322" xmlns:xlink="http://www.w3.org/1999/xlink" width="200" height="200"><defs><style type="text/css"></style></defs><path d="M856.457846 521.531077a22.055385 22.055385 0 0 1 1.811692 8.743385v279.000615a163.84 163.84 0 0 1-84.204307 146.510769 542.011077 542.011077 0 0 1-526.414769 0 163.84 163.84 0 0 1-84.204308-146.510769V530.274462a19.298462 19.298462 0 0 1 18.274461-20.243693 16.856615 16.856615 0 0 1 7.876923 1.969231l261.828924 139.106462a125.321846 125.321846 0 0 0 118.784 0L832.039385 512a17.565538 17.565538 0 0 1 24.418461 9.531077z m89.796923-67.032615a39.384615 39.384615 0 0 1 37.179077 41.117538v121.383385a37.336615 37.336615 0 1 1-74.279384 0V495.616a39.384615 39.384615 0 0 1 37.100307-41.117538zM588.012308 19.298462L984.615385 225.831385a79.478154 79.478154 0 0 1 32.846769 100.903384 72.625231 72.625231 0 0 1-32.768 36.312616L588.169846 569.895385a167.227077 167.227077 0 0 1-156.672 0L39.384615 362.889846a79.556923 79.556923 0 0 1-32.452923-101.060923 72.625231 72.625231 0 0 1 32.452923-35.918769L431.734154 19.613538a167.227077 167.227077 0 0 1 156.514461 0z" fill="#1296db" p-id="54323"></path></svg>