<?xml version="1.0" standalone="no"?><!DOCTYPE svg PUBLIC "-//W3C//DTD SVG 1.1//EN" "http://www.w3.org/Graphics/SVG/1.1/DTD/svg11.dtd"><svg t="1615272776875" class="icon" viewBox="0 0 1024 1024" version="1.1" xmlns="http://www.w3.org/2000/svg" p-id="765" xmlns:xlink="http://www.w3.org/1999/xlink" width="200" height="200"><defs><style type="text/css"></style></defs><path d="M518.46 466.146c-0.25 0.968-25.462 96.968-100.158 208.154-68.574 101.968-194.222 238.208-403.596 307.968v0.032C6.24 985.11 0.118 993.078 0.118 1002.512c0 11.778 9.56 21.336 21.336 21.336a20.76 20.76 0 0 0 6.716-1.124v0.032c97.814-32.614 186.598-81.538 263.982-145.518 61.856-51.14 116.528-111.904 162.512-180.6 78.32-117.058 104.062-215.778 105.124-219.902l-41.328-10.59z" fill="#79AA41" p-id="766"></path><path d="M110.616 325.19C-19.5 451.058 167.754 567.802 167.754 567.802s-116.058 187.692 56.358 242.8c172.416 55.108 339.398-335.334 339.398-335.334S240.732 199.352 110.616 325.19z" fill="#8AC054" p-id="767"></path><path d="M977.882 634.344c130.116-125.834-57.138-242.612-57.138-242.612s116.058-187.662-56.36-242.77c-172.414-55.108-339.426 335.334-339.426 335.334s322.81 275.916 452.924 150.048z" fill="#8AC054" p-id="768"></path><path d="M389.656 913.416c125.868 130.116 242.614-57.14 242.614-57.14s187.694 116.058 242.8-56.356c55.108-172.418-335.334-320.746-335.334-320.746s-275.918 304.124-150.08 434.242z" fill="#9ED36A" p-id="769"></path><path d="M698.81 46.15c-125.836-130.116-242.614 57.138-242.614 57.138s-187.66-116.058-242.768 56.358c-55.14 172.416 326.308 319.528 326.308 319.528S824.68 176.266 698.81 46.15z" fill="#9ED36A" p-id="770"></path></svg>