<?xml version="1.0" standalone="no"?><!DOCTYPE svg PUBLIC "-//W3C//DTD SVG 1.1//EN" "http://www.w3.org/Graphics/SVG/1.1/DTD/svg11.dtd"><svg t="1615430501168" class="icon" viewBox="0 0 1024 1024" version="1.1" xmlns="http://www.w3.org/2000/svg" p-id="12668" xmlns:xlink="http://www.w3.org/1999/xlink" width="200" height="200"><defs><style type="text/css"></style></defs><path d="M513.033 512.578m-448.821 0a448.821 448.821 0 1 0 897.642 0 448.821 448.821 0 1 0-897.642 0Z" fill="#76C2AF" p-id="12669"></path><path d="M757.434 339.373L565.122 228.339c-27.942-16.135-76.237-16.135-104.179 0L268.632 339.373c-28.722 16.58-52.096 57.055-52.096 90.228v222.054c0 33.174 23.374 73.648 52.096 90.228l192.312 111.034c13.971 8.067 32.469 12.512 52.089 12.512 19.621 0 38.118-4.445 52.089-12.512l192.312-111.034c28.722-16.58 52.096-57.055 52.096-90.228V429.602c0-33.174-23.374-73.648-52.096-90.229z" fill="#231F20" p-id="12670"></path><path d="M561.619 206.364c-26.722-15.428-70.45-15.428-97.172 0l-192.309 111.03c-26.722 15.428-48.586 53.298-48.586 84.154v222.06c0 30.856 21.864 68.726 48.586 84.154l192.309 111.03c26.722 15.428 70.45 15.428 97.173 0l192.309-111.03c26.722-15.428 48.586-53.297 48.586-84.154v-222.06c0-30.856-21.864-68.726-48.586-84.154l-192.31-111.03z" fill="#E0E0D1" p-id="12671"></path><path d="M513.033 837.373c-19.621 0-38.119-4.438-52.089-12.519L268.632 713.827c-28.722-16.573-52.096-57.048-52.096-90.222V401.551c0-33.174 23.374-73.648 52.096-90.222l192.312-111.027c27.942-16.162 76.237-16.162 104.179 0l192.312 111.027c28.722 16.573 52.096 57.048 52.096 90.222v222.054c0 33.174-23.374 73.648-52.096 90.222L565.122 824.854c-13.971 8.081-32.468 12.519-52.089 12.519z m0-635.565c-17.197 0-33.201 3.78-45.077 10.629L275.645 323.465c-24.435 14.108-45.083 49.87-45.083 78.086v222.054c0 28.216 20.648 63.978 45.083 78.086l192.312 111.027c23.75 13.697 66.403 13.697 90.153 0l192.312-111.027c24.435-14.108 45.083-49.87 45.083-78.086V401.551c0-28.216-20.648-63.978-45.083-78.086L558.109 212.437c-11.875-6.848-27.88-10.629-45.076-10.629z" fill="#E0E0D1" p-id="12672"></path><path d="M513.033 482.075c-15.751 0-30.9-3.534-41.57-9.691L279.151 361.351c-8.28-4.78-13.033-10.574-13.033-15.909 0.007-5.321 4.753-11.122 13.033-15.895l192.312-111.034c10.67-6.164 25.819-9.697 41.57-9.697 15.751 0 30.9 3.534 41.57 9.691l192.312 111.041c8.28 4.773 13.026 10.574 13.033 15.895 0 5.335-4.753 11.129-13.033 15.909L554.603 472.378c-10.67 6.163-25.819 9.697-41.57 9.697zM483.699 811.349c-4.205 0-9.245-1.623-14.574-4.698L276.814 695.61c-22.538-13.005-41.577-45.981-41.577-72.005V401.551c0-6.198 1.267-20.614 12.978-20.614 4.198 0 9.239 1.63 14.574 4.712l192.312 111.027c22.531 13.012 41.57 45.987 41.57 72.005v222.061c0 7.253-1.568 13.204-4.424 16.758-2.111 2.63-4.83 3.849-8.548 3.849zM540.036 811.349c-11.711 0-12.978-14.409-12.978-20.607V568.681c0-26.017 19.039-58.993 41.57-72.012l192.312-111.02c5.335-3.082 10.375-4.712 14.574-4.712 11.711 0 12.978 14.416 12.978 20.614v222.054c0 26.024-19.039 58.999-41.577 72.005L554.603 806.644c-5.328 3.082-10.369 4.705-14.567 4.705z" fill="#FFFFFF" p-id="12673"></path><path d="M513.033 365.309c-17.738 0-32.729-9.095-32.729-19.861s14.991-19.867 32.729-19.867c17.737 0 32.729 9.102 32.729 19.867s-14.992 19.861-32.729 19.861zM276.642 657.998c-10.766 0-19.861-13.336-19.861-29.123 0-15.786 9.095-29.129 19.861-29.129s19.861 13.342 19.861 29.129-9.095 29.123-19.861 29.123zM742.411 657.998c-10.766 0-19.861-13.336-19.861-29.123 0-15.786 9.095-29.129 19.861-29.129s19.861 13.342 19.861 29.129c-0.001 15.787-9.096 29.123-19.861 29.123zM276.642 490.567c-10.766 0-19.861-13.336-19.861-29.123 0-15.786 9.095-29.129 19.861-29.129s19.861 13.342 19.861 29.129-9.095 29.123-19.861 29.123zM441.74 598.393c-10.766 0-19.861-13.342-19.861-29.129 0-15.786 9.095-29.129 19.861-29.129s19.867 13.342 19.867 29.129c0.001 15.787-9.101 29.129-19.867 29.129zM582.581 598.393c-10.766 0-19.861-13.342-19.861-29.129 0-15.786 9.095-29.129 19.861-29.129s19.867 13.342 19.867 29.129c0.001 15.787-9.101 29.129-19.867 29.129zM441.74 752.968c-10.766 0-19.861-13.342-19.861-29.129s9.095-29.129 19.861-29.129 19.867 13.342 19.867 29.129-9.101 29.129-19.867 29.129z" fill="#4F5D73" p-id="12674"></path></svg>