<?xml version="1.0" standalone="no"?><!DOCTYPE svg PUBLIC "-//W3C//DTD SVG 1.1//EN" "http://www.w3.org/Graphics/SVG/1.1/DTD/svg11.dtd"><svg t="1625902064860" class="icon" viewBox="0 0 1316 1024" version="1.1" xmlns="http://www.w3.org/2000/svg" p-id="3631" xmlns:xlink="http://www.w3.org/1999/xlink" width="164.5" height="128"><defs><style type="text/css"></style></defs><path d="M1275.611429 751.030857V220.598857L998.985143 497.371429l276.772571 253.44m-467.090285-63.195429a239.616 239.616 0 0 1-170.496 70.656c-64.365714 0-125.074286-25.088-170.642286-70.656l-148.48-148.48-318.464 291.913143v48.932571c0 63.926857 51.931429 115.931429 115.858286 115.931429h1043.382857c63.926857 0 115.931429-51.931429 115.931428-115.858286v-50.541714l-317.805714-291.108572-149.211429 149.065143" fill="#ded20f" p-id="3632"></path><path d="M1162.093714 0.950857H118.784C54.857143 0.950857 2.925714 52.882286 2.925714 116.809143v24.210286l507.904 508.050285a182.418286 182.418286 0 0 0 129.609143 53.686857c49.005714 0 95.085714-19.090286 129.609143-53.686857l507.977143-508.050285v-24.137143c0-63.926857-52.150857-115.931429-116.004572-115.931429M0.512 220.598857v531.894857L277.942857 498.102857 0.512 220.598857" fill="#ded20f" p-id="3633"></path></svg>