<?xml version="1.0" standalone="no"?><!DOCTYPE svg PUBLIC "-//W3C//DTD SVG 1.1//EN" "http://www.w3.org/Graphics/SVG/1.1/DTD/svg11.dtd"><svg t="1625127745543" class="icon" viewBox="0 0 1024 1024" version="1.1" xmlns="http://www.w3.org/2000/svg" p-id="6523" xmlns:xlink="http://www.w3.org/1999/xlink" width="128" height="128"><defs><style type="text/css"></style></defs><path d="M734.01 794.16c-9.75-132.56-74.36-233.25-192.06-299.29-5.67-3.19-11.41-6.25-17.96-9.73C586.7 433.82 620.11 372.81 626 299.03c6.61-82.64-20.29-153.34-79.96-210.15C443.92-8.38 280.58-5.15 181.93 96.12c-50.12 51.46-76.84 126.56-71.46 200.89 3.75 51.76 24.53 125.55 100.83 188.95-3.62 2.15-6.87 4.02-10.24 5.68-73.04 36.11-127.3 91.86-165.86 170.43C1.34 731.04-0.4 803.31 0.76 877.46c1.34 84.34 44.63 127.31 128.66 127.71 56.71 0.28 113.44 0.2 170.17 0.15l72.22-0.05 70.59 0.08c23.54 0.04 47.07 0.08 70.61 0.08 32.78 0 65.57-0.08 98.35-0.34 78.51-0.63 122.46-44.53 123.81-124.69 0.45-28.27 0.94-57.49-1.16-86.24z" p-id="6524" fill="#8009a2"></path><path d="M1022.81 727.78c-7.47-101.59-56.99-178.77-147.2-229.38-4.35-2.44-8.75-4.79-13.76-7.46 48.06-39.33 73.67-86.1 78.18-142.64 5.07-63.34-15.55-117.52-61.28-161.06-59.25-56.43-145.35-68.64-216.51-37.61 32.9 46.16 47.32 99.87 42.48 160.45-5.44 68.17-35.92 124.77-92.62 172.61 3.22 2.98 11.47 11.76 13.09 12.67 111.36 62.48 172.49 157.75 181.71 283.16 1.99 27.21 1.53 54.85 1.1 81.59-0.18 10.57-1.32 20.3-3.04 29.52 16.16 0.02 32.32 0.06 48.48 0.06 25.12 0 50.25-0.06 75.38-0.26 60.17-0.49 93.86-34.13 94.89-95.57 0.33-21.65 0.71-44.04-0.9-66.08z" p-id="6525" fill="#8009a2"></path></svg>