<?xml version="1.0" standalone="no"?><!DOCTYPE svg PUBLIC "-//W3C//DTD SVG 1.1//EN" "http://www.w3.org/Graphics/SVG/1.1/DTD/svg11.dtd"><svg t="1615275933938" class="icon" viewBox="0 0 1024 1024" version="1.1" xmlns="http://www.w3.org/2000/svg" p-id="1287" xmlns:xlink="http://www.w3.org/1999/xlink" width="200" height="200"><defs><style type="text/css"></style></defs><path d="M937.299926 551.444526c-33.108053-33.059436-81.919339-36.122296-115.027392-3.111476l-94.656945 94.754179c-24.648727 24.502876-54.304986 24.648727-71.612573 4.132429-11.522186-13.564092-7.000822-55.325939-3.694878-81.870722l47.401397-390.149966c4.375514-34.858259-20.564914-68.501097-55.423172-72.779377-34.858259-4.181046-66.605041 22.606821-70.737471 57.465079l-52.457547 306.431805c-2.673925 7.63284-8.653794 8.945495-9.334429-1.312654l-17.696522-398.317592a63.639415 63.639415 0 1 0-127.27883 0l-1.215421 401.283218c0.291701 4.667215-3.743495 5.979869-4.375513 0.680636L304.600653 155.411925c-6.222953-34.517941-39.379623-59.506986-73.94618-53.235417-34.566558 6.222953-57.465079 41.324296-51.290744 75.842237l50.415641 366.57081c0 6.514654-2.13914 10.306765-5.250617 1.993289L149.415769 345.455067c-11.76527-33.059436-48.13065-52.360313-81.238703-40.595043C35.069013 316.625294 17.761425 354.935347 29.526695 388.0434l131.751578 430.647776 2.187757 7.000822 0.291701 0.875103 0.097233 0.291701a280.470425 280.470425 0 0 0 266.614632 193.494937 379.648734 379.648734 0 0 0 225.582037-76.474256c68.160779-41.032595 286.255826-275.414276 286.255826-275.414275 33.059436-33.351137 28.003287-84.009862-5.007533-117.069299" fill="#FEA445" p-id="1288"></path></svg>