<?xml version="1.0" standalone="no"?><!DOCTYPE svg PUBLIC "-//W3C//DTD SVG 1.1//EN" "http://www.w3.org/Graphics/SVG/1.1/DTD/svg11.dtd"><svg t="1625129848564" class="icon" viewBox="0 0 1024 1024" version="1.1" xmlns="http://www.w3.org/2000/svg" p-id="8386" xmlns:xlink="http://www.w3.org/1999/xlink" width="128" height="128"><defs><style type="text/css"></style></defs><path d="M432.213333 83.968v-5.205333C432.213333 35.264 468.117333 0 512.384 0c44.288 0 80.192 35.264 80.192 78.762667v5.205333c159.509333 27.882667 280.64 164.821333 280.64 329.578667v283.242666l97.813333 103.509334c10.837333 11.477333 13.717333 28.16 7.36 42.538666a40.106667 40.106667 0 0 1-36.757333 23.616H83.136a40.106667 40.106667 0 0 1-36.736-23.616 38.848 38.848 0 0 1 7.36-42.538666l97.813333-103.509334V413.546667c0.021333-162.112 118.229333-300.928 280.64-329.578667z m200.448 821.888C596.757333 984.618667 556.672 1024 512.384 1024c-44.266667 0-84.373333-39.381333-120.256-118.144h240.533333z" p-id="8387" fill="#ea9518"></path></svg>