<?xml version="1.0" standalone="no"?><!DOCTYPE svg PUBLIC "-//W3C//DTD SVG 1.1//EN" "http://www.w3.org/Graphics/SVG/1.1/DTD/svg11.dtd"><svg t="1630659901470" class="icon" viewBox="0 0 1024 1024" version="1.1" xmlns="http://www.w3.org/2000/svg" p-id="9357" xmlns:xlink="http://www.w3.org/1999/xlink" width="128" height="128"><defs><style type="text/css"></style></defs><path d="M895.5 831.7H128c-35.1 0-63.8 28.7-63.8 63.8 0 35.1 28.7 63.8 63.8 63.8h767.5c35.1 0 63.8-28.7 63.8-63.8 0-35.1-28.7-63.8-63.8-63.8zM811 383H672.2V123.8c0-33.3-27-60.4-60.4-60.4H412.4c-33.3 0-60.4 27-60.4 60.4V383H213.2c-26.7 0-40.7 31.8-22.5 51.5L489.6 758c12.1 13.1 32.9 13.1 45.1 0l298.8-323.5c18.1-19.7 4.2-51.5-22.5-51.5z" p-id="9358" fill="#707070"></path></svg>