<?xml version="1.0" standalone="no"?><!DOCTYPE svg PUBLIC "-//W3C//DTD SVG 1.1//EN" "http://www.w3.org/Graphics/SVG/1.1/DTD/svg11.dtd"><svg t="1615273167388" class="icon" viewBox="0 0 1024 1024" version="1.1" xmlns="http://www.w3.org/2000/svg" p-id="1304" xmlns:xlink="http://www.w3.org/1999/xlink" width="200" height="200"><defs><style type="text/css"></style></defs><path d="M37.888 560.384C13.7856 495.488 0 423.808 0 345.6 0 183.0016 131.8016 51.2 294.4 51.2c86.208 0 163.7632 37.056 217.6 96.1024C565.8368 88.256 643.392 51.2 729.6 51.2c162.5984 0 294.4 131.8016 294.4 294.4 0 312.6784-220.032 520.576-442.0608 609.408a188.3136 188.3136 0 0 1-139.8784 0C288 893.3888 134.912 774.4 55.6032 602.88h224.9472c8.512 0 14.8864-4.2496 19.136-10.624l29.76-51.008 70.144 87.1424c4.2368 6.3744 10.624 8.4992 16.9856 8.4992h2.1376c8.4992-2.1248 14.8736-6.3744 16.9984-12.7488l85.0176-187.0464 78.6432 157.2864c4.2496 8.4992 10.624 12.7488 19.1232 12.7488h146.6624c12.7488 0 21.248-8.4992 21.248-21.248 0-12.7616-8.4992-21.248-21.248-21.248H633.3824l-93.5296-184.9216c-4.2496-8.4992-10.624-12.7488-19.1232-12.7488s-14.8864 4.2496-19.136 12.7488l-89.2672 195.5328L344.32 490.24c-6.3744-6.3744-12.7488-8.4992-19.136-8.4992-6.3744 0-12.7488 4.2496-16.9984 10.624l-38.2592 68.0192H37.9008z m727.2576-38.272h-78.6304c-10.624 0-21.248-8.4992-21.248-21.248 0-10.624 8.4864-21.248 21.248-21.248h78.6304c10.624 0 21.248 8.4864 21.248 21.248-2.112 12.7488-10.624 21.248-21.248 21.248z" fill="#EB6184" p-id="1305"></path></svg>