<?xml version="1.0" standalone="no"?><!DOCTYPE svg PUBLIC "-//W3C//DTD SVG 1.1//EN" "http://www.w3.org/Graphics/SVG/1.1/DTD/svg11.dtd"><svg t="1623070940319" class="icon" viewBox="0 0 1024 1024" version="1.1" xmlns="http://www.w3.org/2000/svg" p-id="6000" xmlns:xlink="http://www.w3.org/1999/xlink" width="128" height="128"><defs><style type="text/css"></style></defs><path d="M821.74575564 433.38904567h-0.06593635c0.3846287-11.30808193 0.6483741-22.66012143 0.64837411-34.24293719 0-188.54495438-89.73935463-378.03499737-310.39530424-378.03499737s-310.37332641 189.47905264-310.37332641 378.03499737c0 11.58281672 0.29671357 22.93485621 0.63738471 34.24293719-15.33019826 37.17710471-56.04588607 133.97164676-77.58508956 202.7432453C82.55546432 770.48856644 96.16032811 826.08388841 106.55629055 827.34766747c22.25351394 2.65943178 86.6843038-101.10238256 86.68430475-101.10238256 0 60.13393874 31.25382365 138.52125388 98.73966339 195.17155648-25.86902278 7.69257308-55.2216817 18.84680258-76.11251109 34.15502206-17.87973708 13.09935179-15.6708694 26.37453479-12.4289989 31.81428262 14.12136519 23.66015509 242.51384641 15.11041043 308.49414046 7.69257308 65.93633649 7.37388073 294.51563736 15.9236254 308.62601316-7.69257308 3.21989075-5.39579026 5.49469479-18.6819617-12.41801046-31.81428262-20.87984-15.30821947-50.25447771-26.48442871-76.16745806-34.15502206 67.51880887-56.6503026 98.77263253-135.03761774 98.77263252-195.17155648 0 0 64.45276865 103.80577286 86.6952932 101.10238256 10.37398365-1.25279063 23.96785805-58.08991289-18.06655675-191.2153765-21.18754296-67.18912712-62.3977534-165.56614156-77.58508955-202.7432453" fill="#12B7F5" p-id="6001"></path></svg>