<?xml version="1.0" standalone="no"?><!DOCTYPE svg PUBLIC "-//W3C//DTD SVG 1.1//EN" "http://www.w3.org/Graphics/SVG/1.1/DTD/svg11.dtd"><svg t="1628926086820" class="icon" viewBox="0 0 1024 1024" version="1.1" xmlns="http://www.w3.org/2000/svg" p-id="4495" xmlns:xlink="http://www.w3.org/1999/xlink" width="128" height="128"><defs><style type="text/css"></style></defs><path d="M515.10303 86.884848c-93.090909 0-176.872727 46.545455-238.933333 121.018182-62.060606 77.575758-102.4 183.078788-105.50303 304.09697 0 6.206061 0 12.412121-3.10303 15.515152l0 0c-3.10303 6.206061-9.309091 15.515152-12.412121 24.824242-3.10303 9.309091-9.309091 15.515152-12.412121 24.824242-18.618182 40.339394-31.030303 80.678788-34.133333 117.915152-3.10303 27.927273 0 49.648485 6.206061 55.854545l0 0c0 0 0 0 0 0 6.206061-3.10303 15.515152-9.309091 24.824242-18.618182C142.739394 723.006061 148.945455 713.69697 155.151515 704.387879c9.309091-12.412121 24.824242-15.515152 37.236364-6.206061 3.10303 3.10303 9.309091 9.309091 9.309091 12.412121l0 0c6.206061 18.618182 15.515152 37.236364 24.824242 52.751515 9.309091 15.515152 18.618182 34.133333 27.927273 49.648485 9.309091 12.412121 6.206061 31.030303-6.206061 40.339394-3.10303 0-6.206061 3.10303-9.309091 3.10303-18.618182 6.206061-34.133333 15.515152-46.545455 24.824242-6.206061 6.206061-12.412121 12.412121-12.412121 18.618182 0 12.412121 15.515152 27.927273 43.442424 40.339394 34.133333 15.515152 77.575758 24.824242 130.327273 24.824242 31.030303 0 58.957576-3.10303 83.781818-9.309091 24.824242-6.206061 46.545455-12.412121 62.060606-24.824242 9.309091-6.206061 21.721212-6.206061 27.927273 0 15.515152 9.309091 37.236364 18.618182 62.060606 24.824242 24.824242 6.206061 52.751515 9.309091 83.781818 9.309091 49.648485 0 96.193939-9.309091 130.327273-24.824242 24.824242-12.412121 43.442424-24.824242 43.442424-40.339394 0-6.206061-3.10303-12.412121-12.412121-18.618182-12.412121-9.309091-27.927273-18.618182-46.545455-24.824242-15.515152-6.206061-21.721212-21.721212-15.515152-37.236364 0-3.10303 0-3.10303 3.10303-6.206061l0 0c12.412121-15.515152 18.618182-31.030303 27.927273-49.648485 9.309091-15.515152 15.515152-34.133333 24.824242-52.751515 6.206061-15.515152 21.721212-21.721212 37.236364-15.515152 6.206061 3.10303 12.412121 6.206061 12.412121 12.412121 6.206061 6.206061 12.412121 12.412121 15.515152 18.618182 9.309091 12.412121 18.618182 18.618182 24.824242 21.721212 0 0 0 0 0 0l0 0c6.206061-6.206061 9.309091-27.927273 6.206061-55.854545-3.10303-34.133333-15.515152-74.472727-34.133333-114.812121 0 0 0 0 0 0-3.10303-9.309091-9.309091-15.515152-12.412121-24.824242-6.206061-9.309091-9.309091-15.515152-12.412121-24.824242-3.10303-6.206061-3.10303-12.412121-3.10303-15.515152-3.10303-117.915152-43.442424-226.521212-105.50303-304.09697C688.872727 133.430303 605.090909 86.884848 515.10303 86.884848L515.10303 86.884848zM232.727273 170.666667c71.369697-89.987879 170.666667-142.739394 279.272727-142.739394s207.90303 52.751515 279.272727 142.739394c68.266667 83.781818 114.812121 201.69697 117.915152 332.024242 3.10303 6.206061 9.309091 12.412121 12.412121 21.721212 3.10303 9.309091 9.309091 18.618182 12.412121 27.927273 0 0 0 0 0 0 21.721212 46.545455 37.236364 93.090909 40.339394 133.430303 6.206061 46.545455 0 83.781818-21.721212 102.4 0 0-3.10303 3.10303-6.206061 3.10303-15.515152 12.412121-37.236364 12.412121-55.854545 6.206061-12.412121-6.206061-24.824242-12.412121-37.236364-24.824242-3.10303 6.206061-6.206061 12.412121-9.309091 15.515152-3.10303 9.309091-9.309091 18.618182-12.412121 24.824242 12.412121 6.206061 24.824242 15.515152 34.133333 24.824242 18.618182 18.618182 27.927273 40.339394 27.927273 62.060606 0 37.236364-27.927273 68.266667-74.472727 89.987879-40.339394 18.618182-93.090909 27.927273-152.048485 27.927273-34.133333 0-68.266667-3.10303-96.193939-12.412121-24.824242-6.206061-46.545455-12.412121-65.163636-21.721212-18.618182 9.309091-40.339394 15.515152-65.163636 21.721212-27.927273 6.206061-62.060606 12.412121-96.193939 12.412121-58.957576 0-111.709091-12.412121-152.048485-27.927273-46.545455-21.721212-74.472727-52.751515-74.472727-89.987879 0-21.721212 12.412121-43.442424 27.927273-62.060606 9.309091-9.309091 21.721212-15.515152 34.133333-24.824242-6.206061-9.309091-9.309091-15.515152-12.412121-24.824242-3.10303-6.206061-6.206061-12.412121-9.309091-15.515152-12.412121 12.412121-24.824242 18.618182-37.236364 24.824242-21.721212 9.309091-37.236364 6.206061-55.854545-6.206061 0 0-3.10303-3.10303-6.206061-3.10303-21.721212-18.618182-27.927273-55.854545-21.721212-102.4 3.10303-40.339394 18.618182-86.884848 40.339394-133.430303 6.206061-12.412121 9.309091-21.721212 15.515152-27.927273 3.10303-6.206061 9.309091-12.412121 12.412121-18.618182C124.121212 372.363636 176.872727 242.036364 232.727273 170.666667zM108.606061 747.830303 108.606061 747.830303 108.606061 747.830303zM918.49697 747.830303 918.49697 747.830303 918.49697 747.830303z" p-id="4496" fill="#1296db"></path></svg>