<?xml version="1.0" standalone="no"?><!DOCTYPE svg PUBLIC "-//W3C//DTD SVG 1.1//EN" "http://www.w3.org/Graphics/SVG/1.1/DTD/svg11.dtd"><svg t="1625123133444" class="icon" viewBox="0 0 1024 1024" version="1.1" xmlns="http://www.w3.org/2000/svg" p-id="22891" xmlns:xlink="http://www.w3.org/1999/xlink" width="200" height="200"><defs><style type="text/css"></style></defs><path d="M213.9 15.2H810c132.5 0 198.7 66.2 198.7 198.7V810c0 132.5-66.2 198.7-198.7 198.7H213.9c-132.5 0-198.7-66.2-198.7-198.7V213.9c0-132.5 66.3-198.7 198.7-198.7z" fill="#FFE43C" p-id="22892"></path><path d="M810 15.2H533.6C292.6 74 97.6 250.5 15.2 484.4V810c0 109.7 89 198.7 198.7 198.7H810c109.7 0 198.7-89 198.7-198.7V213.9c0-109.8-88.9-198.7-198.7-198.7z" fill="#00F5D4" p-id="22893"></path><path d="M810 15.2h-3.7c-395.5 85.5-646.8 475.5-561.3 871 9.1 41.9 21.8 82.8 38 122.5h527c109.7 0 198.7-89 198.7-198.7V213.9c0-109.8-88.9-198.7-198.7-198.7z" fill="#01BEFF" p-id="22894"></path><path d="M977.8 107.3c-14.2-22.4-32.9-42-55.4-57.4-259 120-424.8 379.5-424.7 664.9-0.1 101.1 20.8 201.2 61.4 293.8H810c18.7 0 36.8-2.6 53.9-7.4-65.2-99-105.6-236.7-105.6-388.9 0-227.8 90.7-423.1 219.5-505z" fill="#9A5CE5" p-id="22895"></path><path d="M1008.7 810V213.9c0-38.3-11-75.1-31-106.5-128.8 81.9-219.4 277.2-219.4 505 0 152.2 40.4 289.8 105.6 388.9 83.6-23.5 144.8-100.3 144.8-191.3z" fill="#F15BB5" p-id="22896"></path><path d="M852.6 1543.09999987c-89.7 25.3-133.4 68.6-195 98.8 48.2 10.8 96.4 14.3 152.2 14.3 82.1 0 166.5-45 198.9-78.2v-33.7c-49.6-12.4-82.7-21.9-156.1-1.2zM163.4 1518.19999987c-0.1 0-0.2-0.1-0.2-0.1-53.6-26.8-105-37.4-148-40.4v77.2c24.2-10.6 74.4-28.6 148.2-36.7zM547.9 1672.99999987c45.7-4.9 79.8-16.5 109.7-31.1-33-7.4-66-18.1-101.5-33.5-85.9-37.4-174.8-96-325.7-94.2-24.2 0.3-46.4 1.8-67 4.1C303.2 1588.09999987 408.1 1687.89999987 547.9 1672.99999987z" fill="#FFFFFF" p-id="22897"></path><path d="M657.6 1215.13333327c-29.9 14.6-64 26.2-109.7 31.1-139.8 15-244.7-84.8-384.4-154.7-73.9 8.1-124 26.1-148.2 36.6V1215.33333327c0 132.5 66.2 198.7 198.7 198.7h596c132.5 0 198.7-66.2 198.7-198.7v-64.1c-32.4 33.2-116.8 78.2-198.9 78.2-55.8 0-104-3.5-152.2-14.3z" fill="#FFFFFF" p-id="22898"></path><path d="M657.6 2004.46666648c-29.9 14.6-64 26.2-109.7 31.1-139.8 15-244.7-84.8-384.4-154.7-73.9 8.1-124 26.1-148.2 36.6V2004.66666648c0 132.5 66.2 198.7 198.7 198.7h596c132.5 0 198.7-66.2 198.7-198.7v-64.1c-32.4 33.2-116.8 78.2-198.9 78.2-55.8 0-104-3.5-152.2-14.3z" fill="#FFFFFF" p-id="22899"></path><path d="M-408.5333332 565.6c20.3 14.2 23.4 31.5 9.1 51.9L-556.0333332 841.3c-14.2 20.3-31.5 23.4-51.9 9.1-20.3-14.2-23.4-31.5-9.1-51.9L-460.3333332 574.7c14.2-20.3 31.5-23.4 51.8-9.1z" fill="#FFFFFF" p-id="22900"></path><path d="M-430.0333332 596c106.7 74.8 253.9 48.9 328.6-57.9s48.9-253.9-57.9-328.6c0 0-0.1 0-0.1-0.1-106.8-74.7-253.9-48.8-328.6 57.9s-48.8 254 58 328.7z" fill="#FFDEEB" p-id="22901"></path><path d="M-99.4333332 448.6c18-25.8 30.7-54.9 37.3-85.7-21.6-128.5-143.3-215.2-271.8-193.6-95.1 16-170.8 88.2-191.4 182.4 21.7 128.5 143.4 215.1 271.9 193.5 62.3-10.5 117.8-45.6 154.1-97.3v0.7z" fill="#FFFFFF" p-id="22902"></path><path d="M-456.2333332 243.9l366.2 256.4c20.3 14.2 23.4 31.5 9.1 51.9-14.2 20.3-31.5 23.4-51.9 9.1L-499.0333332 304.9c-20.3-14.2-23.4-31.5-9.1-51.9 14.2-20.3 31.5-23.4 51.9-9.1z" fill="#FFB6E5" p-id="22903"></path><path d="M142 608.9m-18.8 0a18.8 18.8 0 1 0 37.6 0 18.8 18.8 0 1 0-37.6 0Z" fill="#FFFFFF" p-id="22904"></path><path d="M935.2 458.1m-18.8 0a18.8 18.8 0 1 0 37.6 0 18.8 18.8 0 1 0-37.6 0Z" fill="#FFFFFF" p-id="22905"></path><path d="M70.5 752.9m-18.8 0a18.8 18.8 0 1 0 37.6 0 18.8 18.8 0 1 0-37.6 0Z" fill="#FFFFFF" p-id="22906"></path><path d="M332.1 67.6m-9.4 0a9.4 9.4 0 1 0 18.8 0 9.4 9.4 0 1 0-18.8 0Z" fill="#FFFFFF" p-id="22907"></path><path d="M107.6 340.2m-9.4 0a9.4 9.4 0 1 0 18.8 0 9.4 9.4 0 1 0-18.8 0Z" fill="#FFFFFF" p-id="22908"></path><path d="M977.8 306.3m-9.4 0a9.4 9.4 0 1 0 18.8 0 9.4 9.4 0 1 0-18.8 0Z" fill="#FFFFFF" p-id="22909"></path><path d="M938.4 663.5m-15.5 0a15.5 15.5 0 1 0 31 0 15.5 15.5 0 1 0-31 0Z" fill="#FFFFFF" p-id="22910"></path><path d="M497.6 49.9m-15.5 0a15.5 15.5 0 1 0 31 0 15.5 15.5 0 1 0-31 0Z" fill="#FFFFFF" p-id="22911"></path></svg>