<?xml version="1.0" standalone="no"?><!DOCTYPE svg PUBLIC "-//W3C//DTD SVG 1.1//EN" "http://www.w3.org/Graphics/SVG/1.1/DTD/svg11.dtd"><svg t="1628926150136" class="icon" viewBox="0 0 1406 1024" version="1.1" xmlns="http://www.w3.org/2000/svg" p-id="5514" xmlns:xlink="http://www.w3.org/1999/xlink" width="175.75" height="128"><defs><style type="text/css"></style></defs><path d="M715.230817 282.495749c29.397864 0 49.042947-19.686941 49.042947-49.00109 0-29.649008-19.603227-48.83366-49.042947-48.833661s-58.977109 19.184652-58.977109 48.833661c0 29.300196 29.579246 49.00109 58.977109 49.00109z m-274.277742-97.820798c-29.397864 0-59.088729 19.198605-59.088729 48.819708 0 29.300196 29.71877 49.00109 59.116634 49.00109s48.83366-19.686941 48.833661-49.00109c0-29.649008-19.603227-48.83366-48.833661-48.833661z m860.490953 411.597994c0-155.025943-143.808153-287.100065-320.320907-300.857205a17.468498 17.468498 0 0 0-0.069762-5.929801C945.655931 124.344452 768.208362 0 568.255452 0 342.295129 0 158.457327 157.551341 158.457327 351.225638 158.457327 455.129714 211.476729 548.750818 312.004307 622.573359l-35.034663 105.341182a17.92893 17.92893 0 0 0 5.24613 19.142795 17.984739 17.984739 0 0 0 11.747984 4.353172 18.221932 18.221932 0 0 0 7.994768-1.883584l131.529976-65.841727 16.212775 3.278832c40.462176 8.371485 75.468934 15.543056 118.596032 15.543056q19.100937 0 38.146065-1.646392a17.524308 17.524308 0 0 0 12.361892-6.71114c47.438413 118.6937 178.173098 204.375845 332.068891 204.375845 39.401788 0 79.291912-9.501635 115.080008-18.459124l101.406584 55.433181a17.81731 17.81731 0 0 0 25.644648-20.747329l-25.895792-86.114672c86.826248-68.618269 134.446043-150.686723 134.446043-232.420319zM603.37383 665.253979c-11.608459 0.990626-23.3983 1.492915-35.076521 1.492914-39.429693 0-72.790059-6.82276-111.36865-14.789622l-22.435579-4.534555a17.231306 17.231306 0 0 0-11.468934 1.534773l-98.546327 49.335949 25.616743-76.947896a17.87312 17.87312 0 0 0-6.71114-20.286898C244.362711 532.063658 194.175661 448.041857 194.175661 351.225638c0-173.945498 167.806409-315.493351 374.079791-315.493351 182.344888 0 343.802921 110.936124 377.107477 258.48354-191.190756 2.497493-345.839983 136.915631-345.839982 302.001308a263.101809 263.101809 0 0 0 9.766732 69.678657 17.803357 17.803357 0 0 0-5.887944-0.641813z m532.258992 142.412906a17.887072 17.887072 0 0 0-6.348375 19.393939l16.896446 56.172662-69.329845-37.936778a17.719642 17.719642 0 0 0-8.580772-2.218443 16.436015 16.436015 0 0 0-4.353172 0.572051c-37.183344 9.390015-75.650316 19.073032-113.11271 19.073033-174.029213 0-315.577066-119.586658-315.577065-266.575976s141.547853-266.492261 315.577065-266.492261c170.694572 0 314.921299 122.056246 314.9213 266.492261 0 73.292348-46.18269 148.41247-130.092872 211.491607zM842.63086 468.803139c-19.617179 0-39.220405 19.756704-39.220405 39.332026s19.603227 39.178548 39.220405 39.178548c29.467626 0 48.931328-19.533464 48.931328-39.178548s-19.533464-39.332025-48.931328-39.332026z m215.45411 0c-19.324177 0-38.927404 19.756704-38.927404 39.332026s19.617179 39.178548 38.927404 39.178548c29.300196 0 49.182472-19.533464 49.182472-39.178548S1087.482833 468.803139 1058.08497 468.803139z m0 0" p-id="5515" fill="#1afa29"></path></svg>