<?xml version="1.0" standalone="no"?><!DOCTYPE svg PUBLIC "-//W3C//DTD SVG 1.1//EN" "http://www.w3.org/Graphics/SVG/1.1/DTD/svg11.dtd"><svg t="1628938963016" class="icon" viewBox="0 0 1181 1024" version="1.1" xmlns="http://www.w3.org/2000/svg" p-id="2940" width="147.625" height="128" xmlns:xlink="http://www.w3.org/1999/xlink"><defs><style type="text/css"></style></defs><path d="M575.803077 320.945231c31.980308 0 52.814769-21.543385 52.814769-52.775385 0-31.271385-21.543385-52.814769-52.775384-52.814769-30.562462 0-63.212308 20.125538-63.212308 52.775385 0 31.940923 32.649846 52.775385 63.212308 52.775384zM345.954462 267.421538c0-31.271385-21.543385-52.775385-52.775385-52.775384-30.562462 0-63.212308 20.086154-63.212308 52.775384 0 32.610462 32.649846 52.775385 63.212308 52.775385 31.940923 0.708923 52.775385-20.873846 52.775385-52.775385zM1181.538462 641.142154c0-77.784615-34.737231-152.812308-97.28-211.140923-61.794462-57.659077-144.462769-93.105231-231.975385-100.745846v-4.17477C815.497846 154.230154 632.123077 25.009231 425.117538 25.009231 190.306462 25.009231 0 188.258462 0 389.001846c0 106.968615 54.193231 204.209231 157.696 279.945846l-35.446154 106.968616c-2.756923 8.310154 0 16.659692 6.262154 22.212923a21.346462 21.346462 0 0 0 22.921846 2.756923l134.734769-67.347692 15.990154 3.465846h0.708923c41.668923 8.349538 77.784615 15.990154 122.249846 15.990154 8.310154 0 40.290462-2.756923 50.688-7.640616 51.396923 125.006769 188.928 209.053538 343.158154 209.053539 38.872615 0 78.493538-9.019077 118.075077-18.747077l103.502769 56.280615c2.756923 1.378462 6.262154 2.756923 9.728 2.756923a18.353231 18.353231 0 0 0 13.193847-4.844308c6.931692-5.553231 9.058462-13.902769 6.931692-22.252307l-26.387692-86.803693c88.221538-70.183385 137.531077-155.569231 137.531077-239.655384z m-184.083693 205.587692a18.786462 18.786462 0 0 0-6.931692 21.543385l14.572308 49.309538-62.503385-34.028307a22.606769 22.606769 0 0 0-9.728-2.756924 11.815385 11.815385 0 0 0-4.844308 0.669539c-36.115692 9.058462-73.649231 18.786462-110.473846 18.786461-168.763077 0-306.294154-116.027077-306.294154-258.402461 0-142.414769 137.531077-258.402462 306.294154-258.402462 166.045538 0 305.624615 118.075077 305.624616 258.363077 0.708923 70.892308-43.716923 143.832615-125.715693 204.957539z m-787.692307-188.219077a20.086154 20.086154 0 0 0-7.640616-22.921846c-97.240615-68.056615-146.550154-150.724923-146.550154-245.878154 0-171.598769 165.297231-311.217231 368.836923-311.217231 177.821538 0 336.896 108.386462 371.633231 252.140308-189.636923 4.174769-343.158154 138.948923-343.158154 302.158769 0 21.543385 2.756923 43.795692 9.058462 66.008616h-2.796308c-11.106462 0.708923-22.921846 1.378462-34.737231 1.378461-39.581538 0-73.649231-6.931692-110.434461-14.572307l-22.252308-4.17477a28.711385 28.711385 0 0 0-13.193846 1.378462L186.171077 729.403077l23.630769-70.852923z m497.348923-150.724923c-21.543385 0-43.047385 21.543385-43.047385 43.047385 0 21.543385 21.504 43.086769 43.047385 43.086769 32.689231 0 52.775385-22.252308 52.775384-43.086769 0-20.834462-20.086154-43.047385-52.775384-43.047385z m221.577846 0c-21.504 0-42.377846 21.543385-42.377846 43.047385 0 21.543385 20.873846 43.086769 42.377846 43.086769 32.689231 0 52.775385-22.252308 52.775384-43.086769 0-20.834462-20.086154-43.047385-52.775384-43.047385z" fill="#1afa29" p-id="2941"></path></svg>