<?xml version="1.0" standalone="no"?><!DOCTYPE svg PUBLIC "-//W3C//DTD SVG 1.1//EN" "http://www.w3.org/Graphics/SVG/1.1/DTD/svg11.dtd"><svg t="1630659600136" class="icon" viewBox="0 0 1024 1024" version="1.1" xmlns="http://www.w3.org/2000/svg" p-id="6521" xmlns:xlink="http://www.w3.org/1999/xlink" width="128" height="128"><defs><style type="text/css"></style></defs><path d="M521.216 0c-18.944 0-38.4 1.024-56.832 3.072-45.568 5.12-89.088 16.384-130.56 32.768 0 0 339.968 335.872 348.672 348.672v-358.4a1037.531 1037.531 0 0 1-30.72-9.728C609.792 5.632 566.272 0 521.216 0z" fill="#F95452" p-id="6522"></path><path d="M876.032 146.432c-13.824-13.824-27.648-26.112-42.496-37.888-36.352-28.672-74.752-51.712-115.712-69.12 0 0 2.56 477.696 0 493.056l253.44-253.44c-4.608-9.728-10.24-18.944-15.36-28.16-22.016-37.888-48.128-73.216-79.872-104.448z" fill="#6467F0" p-id="6523"></path><path d="M987.136 318.464S651.264 658.432 638.464 667.136h358.4a1037.531 1037.531 0 0 1 9.728-30.72c11.264-41.472 17.408-84.992 17.408-130.048 0-18.944-1.024-38.4-3.072-56.832-6.144-46.08-16.896-90.112-33.792-131.072z" fill="#5283F0" p-id="6524"></path><path d="M488.448 704.512l253.44 253.44c9.728-4.608 18.944-10.24 28.672-15.36 37.376-21.504 72.192-47.616 104.448-79.872 13.824-13.824 26.112-27.648 37.888-42.496 28.672-36.352 51.712-74.752 69.12-115.712 0 0-478.208 2.56-493.568 0z" fill="#00B1FE" p-id="6525"></path><path d="M358.912 625.152v358.4c10.24 3.072 20.992 6.144 30.72 9.728 41.472 11.264 84.992 17.408 130.048 17.408 18.944 0 38.4-1.024 56.832-3.072 44.544-5.12 88.576-16.384 130.56-32.768 0-1.024-339.456-337.408-348.16-349.696z" fill="#65D020" p-id="6526"></path><path d="M323.072 476.16L69.632 729.6c4.608 9.728 10.24 18.944 15.36 28.672 21.504 37.376 47.616 72.192 79.872 104.448 13.824 13.824 27.648 26.112 42.496 37.888 36.352 28.672 74.752 51.712 115.712 69.12 0-1.024-2.56-478.72 0-493.568z" fill="#9AD122" p-id="6527"></path><path d="M34.304 374.272C23.04 415.744 17.408 459.264 17.408 504.32c0 18.944 1.024 38.4 3.072 56.832 5.12 45.568 16.384 89.088 32.768 130.56 0 0 335.872-339.968 348.16-348.672H44.032c-3.584 10.752-7.168 20.48-9.728 31.232z" fill="#FFC817" p-id="6528"></path><path d="M267.776 69.12c-37.376 21.504-72.192 47.616-103.936 79.872-13.824 13.824-26.112 28.16-37.888 42.496C97.28 227.84 74.24 266.24 56.832 307.2c0 0 478.208-2.56 493.056 0L295.936 54.272a745.958 745.958 0 0 0-28.16 14.848z" fill="#FF7612" p-id="6529"></path></svg>