<?xml version="1.0" standalone="no"?><!DOCTYPE svg PUBLIC "-//W3C//DTD SVG 1.1//EN" "http://www.w3.org/Graphics/SVG/1.1/DTD/svg11.dtd"><svg t="1623070857728" class="icon" viewBox="0 0 1243 1024" version="1.1" xmlns="http://www.w3.org/2000/svg" p-id="3852" xmlns:xlink="http://www.w3.org/1999/xlink" width="155.375" height="128"><defs><style type="text/css"></style></defs><path d="M990.354286 590.189714c-21.796571 0-43.739429-21.577143-43.739429-43.776 0-21.76 21.942857-43.666286 43.702857-43.666285 32.987429 0 55.076571 21.906286 55.076572 43.666285 0 22.162286-22.089143 43.776-55.076572 43.776m-242.102857 0c-21.869714 0-43.958857-21.577143-43.958857-43.776 0-21.76 22.089143-43.666286 43.995429-43.666285 33.28 0 55.076571 21.906286 55.076571 43.666285 0 22.162286-21.796571 43.776-55.076571 43.776M1243.428571 644.900571c0-174.738286-176.091429-317.074286-373.833142-317.074285-209.408 0-374.308571 142.409143-374.308572 317.074285 0 174.994286 164.937143 317.110857 374.308572 317.110858 43.812571 0 88.027429-10.971429 132.022857-21.942858l120.685714 65.682286-33.133714-109.165714C1177.6 830.683429 1243.428571 743.460571 1243.428571 644.900571M297.106286 295.021714c-32.914286 0-66.194286-21.942857-66.194286-54.674285 0-32.914286 33.28-54.564571 66.194286-54.564572 33.024 0 54.966857 21.613714 54.966857 54.564572 0 32.731429-21.942857 54.674286-54.966857 54.674285m308.004571-109.238857c33.133714 0 55.076571 21.686857 55.076572 54.564572 0 32.731429-21.942857 54.674286-55.076572 54.674285-32.950857 0-66.084571-21.942857-66.084571-54.674285 0-32.914286 33.133714-54.564571 66.084571-54.564572m236.653714 118.491429c14.262857 0 28.379429 1.060571 42.422858 2.56C846.116571 130.852571 656.530286 0 440.100571 0 198.217143 0 0 163.693714 0 371.565714c0 120.064 65.938286 218.624 176.091429 295.058286l-43.995429 131.474286 153.819429-76.580572c55.076571 10.825143 99.181714 21.942857 154.148571 21.942857 13.750857 0 27.465143-0.731429 41.069714-1.755428a323.145143 323.145143 0 0 1-13.604571-91.538286c0.073143-190.902857 165.193143-345.892571 374.235428-345.892571" fill="#35C020" p-id="3853"></path></svg>